<?xml version="1.0" standalone="no"?><svg xmlns="http://www.w3.org/2000/svg" viewBox="0 0 1440 320"><path fill="#dc3545" fill-opacity="1" d="M0,160L14.1,144C28.2,128,56,96,85,101.3C112.9,107,141,149,169,186.7C197.6,224,226,256,254,266.7C282.4,277,311,267,339,250.7C367.1,235,395,213,424,197.3C451.8,181,480,171,508,176C536.5,181,565,203,593,208C621.2,213,649,203,678,181.3C705.9,160,734,128,762,149.3C790.6,171,819,245,847,245.3C875.3,245,904,171,932,128C960,85,988,75,1016,69.3C1044.7,64,1073,64,1101,106.7C1129.4,149,1158,235,1186,256C1214.1,277,1242,235,1271,192C1298.8,149,1327,107,1355,74.7C1383.5,43,1412,21,1426,10.7L1440,0L1440,320L1425.9,320C1411.8,320,1384,320,1355,320C1327.1,320,1299,320,1271,320C1242.4,320,1214,320,1186,320C1157.6,320,1129,320,1101,320C1072.9,320,1045,320,1016,320C988.2,320,960,320,932,320C903.5,320,875,320,847,320C818.8,320,791,320,762,320C734.1,320,706,320,678,320C649.4,320,621,320,593,320C564.7,320,536,320,508,320C480,320,452,320,424,320C395.3,320,367,320,339,320C310.6,320,282,320,254,320C225.9,320,198,320,169,320C141.2,320,113,320,85,320C56.5,320,28,320,14,320L0,320Z"></path></svg>